<svg version="1.1"
    xmlns="http://www.w3.org/2000/svg"
    xmlns:xlink="http://www.w3.org/1999/xlink" style="background: rgb(2,0,36); 
background: linear-gradient(90deg, rgba(2,0,36,1) 0%, rgba(5,48,85,1) 20%, rgba(7,6,92,1) 23%, rgba(9,9,121,1) 35%, rgba(73,8,133,1) 45%, rgba(7,62,156,1) 52%, rgba(60,50,154,1) 62%, rgba(186,21,150,1) 69%, rgba(0,212,255,1) 100%);" width="1560" height="804">
    <defs/>
    <g>
        <path fill="none" stroke="#02063B" paint-order="fill stroke markers" d=" M 20 405.1976301563229 L 21 405.3572566722016 L 22 405.5168458852629 L 23 405.676396022295 L 24 405.8359053105203 L 25 405.99537197761487 L 26 406.1547942517286 L 27 406.3141703615045 L 28 406.4734985360986 L 29 406.6327770051994 L 30 406.7920039990478 L 31 406.9511777484566 L 32 407.1102964848302 L 33 407.2693584401844 L 34 407.42836184716566 L 35 407.58730493907115 L 36 407.7461859498681 L 37 407.9050031142137 L 38 408.06375466747426 L 39 408.22243884574533 L 40 408.3810538858711 L 41 408.5395980254637 L 42 408.6980695029234 L 43 408.8564665574574 L 44 409.0147874291003 L 45 409.1730303587328 L 46 409.3311935881017 L 47 409.48927535983955 L 48 409.6472739174838 L 49 409.8051875054965 L 50 409.96301436928394 L 51 410.1207527552158 L 52 410.2784009106451 L 53 410.4359570839272 L 54 410.5934195244396 L 55 410.7507864826012 L 56 410.908056209892 L 57 411.065226958872 L 58 411.2222969832014 L 59 411.37926453765914 L 60 411.5361278781629 L 61 411.69288526178843 L 62 411.84953494678854 L 63 412.0060751926128 L 64 412.1625042599267 L 65 412.3188204106312 L 66 412.47502190788174 L 67 412.6311070161077 L 68 412.7870740010318 L 69 412.94292112968907 L 70 413.0986466704463 L 71 413.25424889302144 L 72 413.40972606850244 L 73 413.5650764693668 L 74 413.72029836950037 L 75 413.8753900442171 L 76 414.0303497702778 L 77 414.1851758259092 L 78 414.33986649082345 L 79 414.494420046237 L 80 414.6488347748897 L 81 414.8031089610639 L 82 414.9572408906036 L 83 415.11122885093334 L 84 415.26507113107743 L 85 415.4187660216788 L 86 415.57231181501794 L 87 415.72570680503213 L 88 415.8789492873341 L 89 416.03203755923124 L 90 416.1849699197443 L 91 416.33774466962643 L 92 416.4903601113819 L 93 416.6428145492853 L 94 416.7951062893999 L 95 416.94723363959673 L 96 417.09919490957367 L 97 417.25098841087356 L 98 417.4026124569036 L 99 417.5540653629537 L 100 417.7053454462153 L 101 417.8564510258002 L 102 418.00738042275907 L 103 418.15813196010015 L 104 418.30870396280795 L 105 418.45909475786164 L 106 418.6093026742541 L 107 418.7593260430099 L 108 418.9091631972043 L 109 419.05881247198164 L 110 419.20827220457363 L 111 419.35754073431815 L 112 419.5066164026776 L 113 419.6554975532571 L 114 419.8041825318232 L 115 419.95266968632205 L 116 420.10095736689806 L 117 420.24904392591174 L 118 420.3969277179584 L 119 420.54460709988643 L 120 420.6920804308152 L 121 420.8393460721537 L 122 420.9864023876186 L 123 421.1332477432523 L 124 421.27988050744125 L 125 421.426299050934 L 126 421.57250174685936 L 127 421.7184869707445 L 128 421.8642531005328 L 129 422.00979851660213 L 130 422.1551216017827 L 131 422.300220741375 L 132 422.445094323168 L 133 422.58974073745657 L 134 422.73415837705994 L 135 422.87834563733907 L 136 423.02230091621476 L 137 423.1660226141855 L 138 423.3095091343449 L 139 423.4527588823999 L 140 423.59577026668796 L 141 423.73854169819526 L 142 423.88107159057404 L 143 424.0233583601602 L 144 424.16540042599115 L 145 424.30719620982325 L 146 424.4487441361491 L 147 424.5900426322156 L 148 424.73109012804076 L 149 424.87188505643167 L 150 425.01242585300173 L 151 425.15271095618795 L 152 425.29273880726845 L 153 425.4325078503796 L 154 425.57201653253344 L 155 425.711263303635 L 156 425.85024661649936 L 157 425.9889649268689 L 158 426.1274166934305 L 159 426.26560037783264 L 160 426.40351444470247 L 161 426.54115736166284 L 162 426.6785275993494 L 163 426.8156236314277 L 164 426.95244393460985 L 165 427.08898698867165 L 166 427.22525127646946 L 167 427.36123528395706 L 168 427.4969375002024 L 169 427.63235641740454 L 170 427.76749053091015 L 171 427.90233833923054 L 172 428.03689834405805 L 173 428.17116905028297 L 174 428.30514896600994 L 175 428.43883660257455 L 176 428.57223047456006 L 177 428.70532909981364 L 178 428.8381309994631 L 179 428.97063469793306 L 180 429.1028387229617 L 181 429.2347416056167 L 182 429.3663418803118 L 183 429.4976380848231 L 184 429.6286287603053 L 185 429.75931245130766 L 186 429.88968770579066 L 187 430.0197530751416 L 188 430.1495071141911 L 189 430.27894838122893 L 190 430.40807543802015 L 191 430.536886849821 L 192 430.66538118539484 L 193 430.7935570170282 L 194 430.9214129205465 L 195 431.0489474753299 L 196 431.1761592643291 L 197 431.3030468740811 L 198 431.4296088947248 L 199 431.55584392001697 L 200 431.6817505473474 L 201 431.80732737775486 L 202 431.9325730159426 L 203 432.05748607029363 L 204 432.1820651528865 L 205 432.30630887951037 L 206 432.4302158696807 L 207 432.55378474665446 L 208 432.6770141374454 L 209 432.7999026728392 L 210 432.92244898740915 L 211 433.0446517195307 L 212 433.16650951139695 L 213 433.28802100903374 L 214 433.40918486231453 L 215 433.5299997249756 L 216 433.6504642546307 L 217 433.77057711278644 L 218 433.8903369648566 L 219 434.0097424801775 L 220 434.1287923320224 L 221 434.24748519761636 L 222 434.36581975815096 L 223 434.48379469879904 L 224 434.6014087087291 L 225 434.71866048112 L 226 434.83554871317557 L 227 434.95207210613876 L 228 435.0682293653065 L 229 435.1840192000436 L 230 435.2994403237978 L 231 435.4144914541131 L 232 435.52917131264496 L 233 435.6434786251738 L 234 435.75741212161967 L 235 435.8709705360559 L 236 435.98415260672357 L 237 436.09695707604516 L 238 436.20938269063896 L 239 436.3214282013326 L 240 436.4330923631771 L 241 436.54437393546067 L 242 436.65527168172264 L 243 436.76578436976683 L 244 436.87591077167576 L 245 436.9856496638238 L 246 437.094999826891 L 247 437.2039600458768 L 248 437.31252911011313 L 249 437.42070581327823 L 250 437.5284889534098 L 251 437.6358773329185 L 252 437.7428697586013 L 253 437.8494650416544 L 254 437.95566199768706 L 255 438.06145944673403 L 256 438.16685621326934 L 257 438.27185112621873 L 258 438.3764430189733 L 259 438.48063072940187 L 260 438.5844130998643 L 261 438.6877889772243 L 262 438.7907572128619 L 263 438.89331666268674 L 264 438.99546618715056 L 265 439.09720465125946 L 266 439.1985309245873 L 267 439.2994438812875 L 268 439.39994240010617 L 269 439.50002536439405 L 270 439.5996916621192 L 271 439.6989401858794 L 272 439.79776983291424 L 273 439.89617950511763 L 274 439.9941681090497 L 275 440.0917345559492 L 276 440.1888777617456 L 277 440.2855966470708 L 278 440.3818901372716 L 279 440.4777571624213 L 280 440.5731966573317 L 281 440.66820756156505 L 282 440.76278881944546 L 283 440.8569393800712 L 284 440.95065819732577 L 285 441.0439442298899 L 286 441.1367964412533 L 287 441.22921379972547 L 288 441.32119527844793 L 289 441.41273985540516 L 290 441.50384651343614 L 291 441.5945142402456 L 292 441.6847420284153 L 293 441.7745288754152 L 294 441.86387378361457 L 295 441.95277576029315 L 296 442.0412338176521 L 297 442.129246972825 L 298 442.2168142478888 L 299 442.30393466987476 L 300 442.390607270779 L 301 442.4768310875736 L 302 442.562605162217 L 303 442.6479285416647 L 304 442.7328002778802 L 305 442.817219427845 L 306 442.9011850535694 L 307 442.9846962221029 L 308 443.0677520055445 L 309 443.15035148105295 L 310 443.23249373085724 L 311 443.3141778422664 L 312 443.39540290768025 L 313 443.47616802459873 L 314 443.55647229563255 L 315 443.6363148285128 L 316 443.7156947361011 L 317 443.79461113639934 L 318 443.8730631525593 L 319 443.95104991289287 L 320 444.0285705508812 L 321 444.1056242051847 L 322 444.1822100196524 L 323 444.2583271433317 L 324 444.3339747304775 L 325 444.40915194056174 L 326 444.48385793828305 L 327 444.5580918935754 L 328 444.6318529816179 L 329 444.70514038284364 L 330 444.7779532829489 L 331 444.85029087290224 L 332 444.92215234895343 L 333 444.9935369126423 L 334 445.06444377080777 L 335 445.13487213559665 L 336 445.20482122447225 L 337 445.27429026022315 L 338 445.34327847097194 L 339 445.4117850901836 L 340 445.4798093566743 L 341 445.54735051461944 L 342 445.61440781356237 L 343 445.6809805084228 L 344 445.7470678595048 L 345 445.812669132505 L 346 445.8777835985212 L 347 445.94241053405995 L 348 446.0065492210448 L 349 446.0701989468244 L 350 446.13335900418025 L 351 446.1960286913345 L 352 446.258207311958 L 353 446.3198941751778 L 354 446.38108859558497 L 355 446.4417898932421 L 356 446.501997393691 L 357 446.56171042796 L 358 446.62092833257157 L 359 446.6796504495497 L 360 446.73787612642684 L 361 446.79560471625183 L 362 446.85283557759635 L 363 446.9095680745625 L 364 446.96580157678994 L 365 447.0215354594624 L 366 447.07676910331526 L 367 447.13150189464176 L 368 447.18573322530045 L 369 447.2394624927215 L 370 447.29268909991356 L 371 447.3454124554706 L 372 447.39763197357786 L 373 447.4493470740192 L 374 447.50055718218283 L 375 447.55126172906813 L 376 447.60146015129175 L 377 447.65115189109395 L 378 447.70033639634477 L 379 447.7490131205502 L 380 447.7971815228584 L 381 447.84484106806525 L 382 447.89199122662075 L 383 447.93863147463475 L 384 447.9847612938828 L 385 448.03038017181177 L 386 448.0754876015457 L 387 448.1200830818915 L 388 448.16416611734417 L 389 448.2077362180927 L 390 448.25079290002526 L 391 448.2933356847348 L 392 448.3353640995241 L 393 448.37687767741124 L 394 448.41787595713464 L 395 448.4583584831583 L 396 448.4983248056767 L 397 448.53777448062016 L 398 448.5767070696593 L 399 448.61512214021013 L 400 448.653019265439 L 401 448.69039802426715 L 402 448.72725800137533 L 403 448.7635987872087 L 404 448.7994199779811 L 405 448.83472117567965 L 406 448.8695019880692 L 407 448.90376202869663 L 408 448.9375009168952 L 409 448.97071827778865 L 410 449.0034137422956 L 411 449.0355869471335 L 412 449.0672375348225 L 413 449.09836515368977 L 414 449.12896945787327 L 415 449.1590501073254 L 416 449.1886067678171 L 417 449.21763911094126 L 418 449.2461468141167 L 419 449.2741295605913 L 420 449.3015870394461 L 421 449.32851894559815 L 422 449.3549249798045 L 423 449.3808048486648 L 424 449.40615826462545 L 425 449.4309849459819 L 426 449.4552846168825 L 427 449.4790570073312 L 428 449.5023018531905 L 429 449.5250188961845 L 430 449.547207883902 L 431 449.56886856979884 L 432 449.59000071320094 L 433 449.610604079307 L 434 449.63067843919083 L 435 449.65022356980427 L 436 449.66923925397936 L 437 449.687725280431 L 438 449.705681443759 L 439 449.7231075444506 L 440 449.7400033888827 L 441 449.7563687893239 L 442 449.7722035639365 L 443 449.7875075367788 L 444 449.8022805378067 L 445 449.81652240287605 L 446 449.83023297374393 L 447 449.84341209807087 L 448 449.85605962942225 L 449 449.86817542727016 L 450 449.8797593569946 L 451 449.8908112898855 L 452 449.9013311031436 L 453 449.9113186798823 L 454 449.92077390912857 L 455 449.9296966858244 L 456 449.93808691082796 L 457 449.9459444909146 L 458 449.95326933877794 L 459 449.96006137303084 L 460 449.9663205182064 L 461 449.9720467047585 L 462 449.977239869063 L 463 449.9818999534181 L 464 449.98602690604514 L 465 449.98962068108915 L 466 449.9926812386193 L 467 449.9952085446294 L 468 449.9972025710384 L 469 449.99866329569033 L 470 449.9995907023551 L 471 449.9999847807281 L 472 449.99984552643065 L 473 449.99917294101004 L 474 449.99796703193954 L 475 449.996227812618 L 476 449.9939553023701 L 477 449.99114952644595 L 478 449.98781051602083 L 479 449.98393830819475 L 480 449.9795329459922 L 481 449.9745944783617 L 482 449.96912296017507 L 483 449.96311845222675 L 484 449.95658102123355 L 485 449.9495107398335 L 486 449.9419076865852 L 487 449.9337719459669 L 488 449.9251036083757 L 489 449.91590277012637 L 490 449.90616953345034 L 491 449.89590400649456 L 492 449.88510630332036 L 493 449.87377654390207 L 494 449.86191485412587 L 495 449.8495213657881 L 496 449.8365962165941 L 497 449.82313955015655 L 498 449.8091515159938 L 499 449.7946322695282 L 500 449.7795819720847 L 501 449.76400079088864 L 502 449.7478888990641 L 503 449.73124647563185 L 504 449.71407370550764 L 505 449.69637077949983 L 506 449.6781378943073 L 507 449.6593752525177 L 508 449.64008306260445 L 509 449.62026153892504 L 510 449.5999109017185 L 511 449.57903137710275 L 512 449.5576231970723 L 513 449.5356865994956 L 514 449.51322182811236 L 515 449.490229132531 L 516 449.46670876822566 L 517 449.44266099653345 L 518 449.4180860846516 L 519 449.3929843056344 L 520 449.3673559383903 L 521 449.3412012676786 L 522 449.31452058410656 L 523 449.28731418412593 L 524 449.25958237002976 L 525 449.23132544994894 L 526 449.2025437378491 L 527 449.1732375535267 L 528 449.1434072226057 L 529 449.1130530765339 L 530 449.08217545257924 L 531 449.05077469382616 L 532 449.0188511491717 L 533 448.98640517332154 L 534 448.9534371267861 L 535 448.91994737587686 L 536 448.8859362927017 L 537 448.8514042551612 L 538 448.81635164694427 L 539 448.78077885752407 L 540 448.74468628215334 L 541 448.70807432186047 L 542 448.6709433834445 L 543 448.6332938794711 L 544 448.59512622826776 L 545 448.55644085391896 L 546 448.5172381862619 L 547 448.47751866088134 L 548 448.4372827191049 L 549 448.39653080799826 L 550 448.35526338036 L 551 448.3134808947166 L 552 448.2711838153175 L 553 448.2283726121299 L 554 448.1850477608332 L 555 448.1412097428144 L 556 448.09685904516203 L 557 448.0519961606612 L 558 448.0066215877879 L 559 447.9607358307036 L 560 447.91433939924957 L 561 447.8674328089413 L 562 447.8200165809626 L 563 447.77209124215995 L 564 447.7236573250366 L 565 447.67471536774667 L 566 447.6252659140893 L 567 447.57530951350225 L 568 447.5248467210562 L 569 447.4738780974482 L 570 447.4224042089959 L 571 447.37042562763077 L 572 447.3179429308922 L 573 447.2649567019205 L 574 447.21146752945117 L 575 447.1574760078078 L 576 447.10298273689557 L 577 447.0479883221948 L 578 446.9924933747538 L 579 446.93649851118266 L 580 446.880004353646 L 581 446.82301152985593 L 582 446.7655206730656 L 583 446.7075324220617 L 584 446.6490474211575 L 585 446.5900663201857 L 586 446.5305897744914 L 587 446.4706184449243 L 588 446.4101529978321 L 589 446.3491941050523 L 590 446.2877424439054 L 591 446.225798697187 L 592 446.16336355316025 L 593 446.1004377055484 L 594 446.0370218535269 L 595 445.9731167017156 L 596 445.9087229601711 L 597 445.8438413443788 L 598 445.77847257524485 L 599 445.7126173790883 L 600 445.6462764876327 L 601 445.57945063799855 L 602 445.5121405726946 L 603 445.4443470396096 L 604 445.37607079200455 L 605 445.30731258850363 L 606 445.2380731930861 L 607 445.16835337507797 L 608 445.0981539091431 L 609 445.0274755752749 L 610 444.9563191587874 L 611 444.8846854503067 L 612 444.8125752457622 L 613 444.7399893463777 L 614 444.6669285586624 L 615 444.59339369440204 L 616 444.51938557064994 L 617 444.44490500971784 L 618 444.3699528391668 L 619 444.2945298917978 L 620 444.21863700564296 L 621 444.14227502395573 L 622 444.0654447952018 L 623 443.9881471730496 L 624 443.9103830163608 L 625 443.83215318918076 L 626 443.753458560729 L 627 443.6743000053894 L 628 443.59467840270077 L 629 443.51459463734665 L 630 443.43404959914596 L 631 443.3530441830426 L 632 443.27157928909605 L 633 443.18965582247085 L 634 443.1072746934269 L 635 443.0244368173093 L 636 442.9411431145381 L 637 442.8573945105978 L 638 442.77319193602784 L 639 442.68853632641134 L 640 442.6034286223654 L 641 442.51786976953025 L 642 442.431860718559 L 643 442.34540242510684 L 644 442.2584958498205 L 645 442.1711419583279 L 646 442.08334172122676 L 647 441.99509611407444 L 648 441.9064061173768 L 649 441.8172727165773 L 650 441.7276969020461 L 651 441.6376796690692 L 652 441.54722201783704 L 653 441.45632495343386 L 654 441.36498948582596 L 655 441.273216629851 L 656 441.1810074052064 L 657 441.0883628364382 L 658 440.9952839529295 L 659 440.90177178888916 L 660 440.80782738334034 L 661 440.7134517801087 L 662 440.6186460278111 L 663 440.5234111798439 L 664 440.427748294371 L 665 440.3316584343123 L 666 440.2351426673322 L 667 440.1382020658268 L 668 440.0408377069131 L 669 439.94305067241623 L 670 439.8448420488578 L 671 439.74621292744376 L 672 439.64716440405215 L 673 439.54769757922116 L 674 439.4478135581367 L 675 439.3475134506202 L 676 439.24679837111626 L 677 439.1456694386803 L 678 439.04412777696604 L 679 438.94217451421315 L 680 438.8398107832346 L 681 438.7370377214042 L 682 438.63385647064365 L 683 438.53026817741033 L 684 438.4262739926843 L 685 438.3218750719552 L 686 438.2170725752102 L 687 438.1118676669202 L 688 438.0062615160277 L 689 437.9002552959332 L 690 437.79385018448255 L 691 437.6870473639537 L 692 437.57984802104346 L 693 437.4722533468546 L 694 437.3642645368824 L 695 437.25588279100134 L 696 437.14710931345206 L 697 437.03794531282756 L 698 436.92839200206 L 699 436.81845059840737 L 700 436.70812232343957 L 701 436.5974084030253 L 702 436.4863100673181 L 703 436.3748285507426 L 704 436.2629650919814 L 705 436.15072093396054 L 706 436.03809732383615 L 707 435.92509551298065 L 708 435.81171675696845 L 709 435.69796231556234 L 710 435.5838334526994 L 711 435.46933143647703 L 712 435.3544575391385 L 713 435.2392130370594 L 714 435.12359921073295 L 715 435.00761734475606 L 716 434.8912687278149 L 717 434.7745546526707 L 718 434.65747641614536 L 719 434.5400353191069 L 720 434.4222326664552 L 721 434.30406976710753 L 722 434.1855479339836 L 723 434.0666684839916 L 724 433.94743273801294 L 725 433.8278420208881 L 726 433.70789766140166 L 727 433.5876009922673 L 728 433.46695335011367 L 729 433.34595607546873 L 730 433.2246105127454 L 731 433.1029180102266 L 732 432.9808799200498 L 733 432.8584975981926 L 734 432.73577240445746 L 735 432.6127057024562 L 736 432.4892988595954 L 737 432.365553247061 L 738 432.2414702398028 L 739 432.1170512165198 L 740 431.99229755964427 L 741 431.86721065532663 L 742 431.7417918934201 L 743 431.61604266746514 L 744 431.4899643746742 L 745 431.36355841591575 L 746 431.2368261956992 L 747 431.1097691221591 L 748 430.98238860703935 L 749 430.8546860656777 L 750 430.7266629169899 L 751 430.59832058345415 L 752 430.46966049109506 L 753 430.34068406946784 L 754 430.2113927516425 L 755 430.08178797418793 L 756 429.9518711771559 L 757 429.82164380406505 L 758 429.6911073018848 L 759 429.5602631210195 L 760 429.42911271529186 L 761 429.2976575419274 L 762 429.16589906153774 L 763 429.03383873810463 L 764 428.9014780389637 L 765 428.76881843478805 L 766 428.63586139957175 L 767 428.50260841061396 L 768 428.36906094850207 L 769 428.2352204970954 L 770 428.1010885435086 L 771 427.96666657809544 L 772 427.8319560944319 L 773 427.6969585892997 L 774 427.5616755626698 L 775 427.4261085176855 L 776 427.290258960646 L 777 427.15412840098924 L 778 427.01771835127573 L 779 426.8810303271713 L 780 426.7440658474303 L 781 426.60682643387884 L 782 426.46931361139804 L 783 426.33152890790655 L 784 426.19347385434423 L 785 426.05514998465463 L 786 425.9165588357682 L 787 425.7777019475853 L 788 425.6385808629587 L 789 425.4991971276768 L 790 425.35955229044635 L 791 425.2196479028752 L 792 425.0794855194551 L 793 424.9390666975445 L 794 424.798392997351 L 795 424.65746598191436 L 796 424.5162872170888 L 797 424.37485827152574 L 798 424.2331807166566 L 799 424.0912561266748 L 800 423.949086078519 L 801 423.8066721518547 L 802 423.66401592905754 L 803 423.5211189951952 L 804 423.37798293800984 L 805 423.2346093479007 L 806 423.0909998179061 L 807 422.9471559436861 L 808 422.8030793235044 L 809 422.65877155821096 L 810 422.51423425122385 L 811 422.36946900851166 L 812 422.2244774385756 L 813 422.0792611524316 L 814 421.93382176359256 L 815 421.7881608880501 L 816 421.6422801442568 L 817 421.4961811531085 L 818 421.3498655379258 L 819 421.20333492443615 L 820 421.056590940756 L 821 420.90963521737257 L 822 420.7624693871257 L 823 420.6150950851898 L 824 420.4675139490556 L 825 420.31972761851193 L 826 420.17173773562763 L 827 420.02354594473326 L 828 419.8751538924027 L 829 419.72656322743495 L 830 419.577775600836 L 831 419.4287926658001 L 832 419.2796160776916 L 833 419.1302474940268 L 834 418.98068857445486 L 835 418.83094098074014 L 836 418.6810063767433 L 837 418.5308864284027 L 838 418.3805828037164 L 839 418.23009717272294 L 840 418.0794312074834 L 841 417.9285865820626 L 842 417.77756497251033 L 843 417.62636805684286 L 844 417.4749975150245 L 845 417.3234550289484 L 846 417.17174228241856 L 847 417.0198609611306 L 848 416.8678127526531 L 849 416.7155993464091 L 850 416.5632224336571 L 851 416.41068370747234 L 852 416.25798486272794 L 853 416.1051275960762 L 854 415.95211360592964 L 855 415.7989445924421 L 856 415.64562225749 L 857 415.49214830465314 L 858 415.3385244391962 L 859 415.1847523680493 L 860 415.03083379978955 L 861 414.8767704446217 L 862 414.7225640143591 L 863 414.568216222405 L 864 414.4137287837333 L 865 414.2591034148695 L 866 414.1043418338717 L 867 413.94944576031133 L 868 413.7944169152544 L 869 413.6392570212419 L 870 413.48396780227114 L 871 413.3285509837763 L 872 413.1730082926093 L 873 413.0173414570207 L 874 412.86155220664034 L 875 412.7056422724583 L 876 412.5496133868056 L 877 412.3934672833349 L 878 412.23720569700134 L 879 412.08083036404315 L 880 411.9243430219624 L 881 411.7677454095057 L 882 411.611039266645 L 883 411.4542263345579 L 884 411.2973083556089 L 885 411.1402870733293 L 886 410.9831642323985 L 887 410.8259415786242 L 888 410.6686208589232 L 889 410.51120382130176 L 890 410.3536922148366 L 891 410.196087789655 L 892 410.03839229691556 L 893 409.8806074887889 L 894 409.72273511843787 L 895 409.5647769399983 L 896 409.40673470855944 L 897 409.2486101801445 L 898 409.09040511169104 L 899 408.93212126103145 L 900 408.7737603868736 L 901 408.6153242487812 L 902 408.45681460715406 L 903 408.29823322320885 L 904 408.1395818589593 L 905 407.98086227719665 L 906 407.8220762414702 L 907 407.6632255160677 L 908 407.5043118659955 L 909 407.3453370569592 L 910 407.1863028553439 L 911 407.0272110281947 L 912 406.86806334319687 L 913 406.70886156865646 L 914 406.54960747348036 L 915 406.390302827157 L 916 406.23094939973623 L 917 406.0715489618101 L 918 405.9121032844929 L 919 405.7526141394017 L 920 405.5930832986365 L 921 405.4335125347605 L 922 405.2739036207805 L 923 405.1142583301273 L 924 404.9545784366358 L 925 404.79486571452543 L 926 404.63512193838034 L 927 404.47534888312964 L 928 404.315548324028 L 929 404.1557220366354 L 930 403.9958717967979 L 931 403.8359993806277 L 932 403.6761065644833 L 933 403.5161951249498 L 934 403.3562668388194 L 935 403.1963234830714 L 936 403.03636683485263 L 937 402.8763986714574 L 938 402.7164207703082 L 939 402.5564349089356 L 940 402.3964428649586 L 941 402.23644641606495 L 942 402.0764473399914 L 943 401.91644741450364 L 944 401.75644841737716 L 945 401.59645212637685 L 946 401.43646031923765 L 947 401.2764747736447 L 948 401.1164972672134 L 949 400.9565295774701 L 950 400.7965734818319 L 951 400.636630757587 L 952 400.4767031818753 L 953 400.31679253166806 L 954 400.1569005837487 L 955 399.99702911469285 L 956 399.83717990084835 L 957 399.6773547183161 L 958 399.51755534292977 L 959 399.35778355023626 L 960 399.19804111547614 L 961 399.03832981356373 L 962 398.8786514190673 L 963 398.7190077061897 L 964 398.55940044874825 L 965 398.39983142015535 L 966 398.24030239339845 L 967 398.0808151410208 L 968 397.9213714351012 L 969 397.76197304723485 L 970 397.60262174851323 L 971 397.4433193095047 L 972 397.28406750023476 L 973 397.12486809016633 L 974 396.96572284818006 L 975 396.8066335425548 L 976 396.6476019409478 L 977 396.48862981037536 L 978 396.3297189171928 L 979 396.17087102707495 L 980 396.01208790499686 L 981 395.8533713152138 L 982 395.6947230212417 L 983 395.5361447858379 L 984 395.3776383709811 L 985 395.219205537852 L 986 395.0608480468139 L 987 394.9025676573927 L 988 394.74436612825787 L 989 394.58624521720253 L 990 394.4282066811241 L 991 394.2702522760046 L 992 394.1123837568914 L 993 393.9546028778775 L 994 393.7969113920822 L 995 393.6393110516315 L 996 393.4818036076387 L 997 393.3243908101848 L 998 393.1670744082993 L 999 393.0098561499407 L 1000 392.8527377819767 L 1001 392.69572105016556 L 1002 392.5388076991359 L 1003 392.38199947236774 L 1004 392.22529811217316 L 1005 392.0687053596768 L 1006 391.9122229547965 L 1007 391.75585263622406 L 1008 391.59959614140575 L 1009 391.44345520652337 L 1010 391.28743156647454 L 1011 391.1315269548536 L 1012 390.9757431039325 L 1013 390.82008174464124 L 1014 390.66454460654893 L 1015 390.5091334178444 L 1016 390.35384990531696 L 1017 390.1986957943374 L 1018 390.0436728088388 L 1019 389.888782671297 L 1020 389.7340271027121 L 1021 389.57940782258873 L 1022 389.4249265489173 L 1023 389.2705849981549 L 1024 389.11638488520595 L 1025 388.96232792340356 L 1026 388.80841582449006 L 1027 388.65465029859837 L 1028 388.5010330542327 L 1029 388.3475657982498 L 1030 388.19425023583983 L 1031 388.0410880705074 L 1032 387.88808100405276 L 1033 387.7352307365529 L 1034 387.58253896634255 L 1035 387.4300073899954 L 1036 387.2776377023051 L 1037 387.12543159626665 L 1038 386.9733907630574 L 1039 386.82151689201845 L 1040 386.6698116706357 L 1041 386.518276784521 L 1042 386.36691391739396 L 1043 386.2157247510625 L 1044 386.06471096540474 L 1045 385.91387423835016 L 1046 385.7632162458607 L 1047 385.6127386619126 L 1048 385.46244315847747 L 1049 385.3123314055037 L 1050 385.1624050708983 L 1051 385.01266582050766 L 1052 384.86311531809986 L 1053 384.71375522534555 L 1054 384.5645872017997 L 1055 384.41561290488346 L 1056 384.2668339898651 L 1057 384.11825210984216 L 1058 383.969868915723 L 1059 383.82168605620814 L 1060 383.67370517777226 L 1061 383.5259279246459 L 1062 383.378355938797 L 1063 383.23099085991265 L 1064 383.0838343253813 L 1065 382.9368879702739 L 1066 382.7901534273263 L 1067 382.64363232692074 L 1068 382.497326297068 L 1069 382.35123696338906 L 1070 382.20536594909726 L 1071 382.0597148749802 L 1072 381.91428535938155 L 1073 381.76907901818345 L 1074 381.62409746478806 L 1075 381.4793423101001 L 1076 381.3348151625087 L 1077 381.19051762786955 L 1078 381.0464513094871 L 1079 380.9026178080968 L 1080 380.7590187218471 L 1081 380.61565564628194 L 1082 380.47253017432297 L 1083 380.3296438962517 L 1084 380.18699839969196 L 1085 380.0445952695922 L 1086 379.9024360882081 L 1087 379.7605224350845 L 1088 379.6188558870384 L 1089 379.4774380181411 L 1090 379.33627039970077 L 1091 379.195354600245 L 1092 379.05469218550354 L 1093 378.9142847183906 L 1094 378.7741337589878 L 1095 378.6342408645264 L 1096 378.4946075893706 L 1097 378.3552354849998 L 1098 378.21612609999147 L 1099 378.07728098000393 L 1100 377.93870166775946 L 1101 377.80038970302667 L 1102 377.6623466226037 L 1103 377.52457396030127 L 1104 377.38707324692524 L 1105 377.24984601025994 L 1106 377.112893775051 L 1107 376.9762180629885 L 1108 376.83982039269006 L 1109 376.70370227968397 L 1110 376.5678652363923 L 1111 376.4323107721142 L 1112 376.29704039300884 L 1113 376.16205560207914 L 1114 376.0273578991547 L 1115 375.8929487808753 L 1116 375.75882974067423 L 1117 375.6250022687616 L 1118 375.4914678521079 L 1119 375.3582279744277 L 1120 375.22528411616247 L 1121 375.09263775446493 L 1122 374.96029036318225 L 1123 374.8282434128395 L 1124 374.69649837062383 L 1125 374.5650567003675 L 1126 374.43391986253226 L 1127 374.30308931419273 L 1128 374.1725665090203 L 1129 374.0423528972671 L 1130 373.91244992574957 L 1131 373.78285903783285 L 1132 373.65358167341424 L 1133 373.52461926890766 L 1134 373.39597325722735 L 1135 373.2676450677721 L 1136 373.1396361264094 L 1137 373.0119478554595 L 1138 372.88458167367963 L 1139 372.7575389962483 L 1140 372.6308212347495 L 1141 372.50442979715706 L 1142 372.3783660878189 L 1143 372.2526315074418 L 1144 372.12722745307514 L 1145 372.00215531809613 L 1146 371.8774164921939 L 1147 371.7530123613541 L 1148 371.6289443078435 L 1149 371.50521371019477 L 1150 371.3818219431911 L 1151 371.25877037785085 L 1152 371.1360603814124 L 1153 371.01369331731877 L 1154 370.8916705452029 L 1155 370.76999342087197 L 1156 370.64866329629285 L 1157 370.52768151957684 L 1158 370.40704943496456 L 1159 370.2867683828113 L 1160 370.166839699572 L 1161 370.0472647177863 L 1162 369.92804476606386 L 1163 369.80918116906963 L 1164 369.69067524750903 L 1165 369.57252831811326 L 1166 369.4547416936248 L 1167 369.33731668278267 L 1168 369.22025459030806 L 1169 369.10355671688967 L 1170 368.98722435916926 L 1171 368.87125880972746 L 1172 368.7556613570692 L 1173 368.64043328560933 L 1174 368.52557587565866 L 1175 368.4110904034095 L 1176 368.29697814092134 L 1177 368.1832403561071 L 1178 368.0698783127188 L 1179 367.95689327033347 L 1180 367.84428648433936 L 1181 367.7320592059218 L 1182 367.62021268204944 L 1183 367.5087481554602 L 1184 367.3976668646477 L 1185 367.2869700438474 L 1186 367.17665892302284 L 1187 367.066734727852 L 1188 366.9571986797136 L 1189 366.84805199567387 L 1190 366.7392958884725 L 1191 366.6309315665096 L 1192 366.5229602338321 L 1193 366.4153830901204 L 1194 366.3082013306748 L 1195 366.20141614640283 L 1196 366.0950287238054 L 1197 365.9890402449639 L 1198 365.8834518875269 L 1199 365.77826482469743 L 1200 365.67348022521946 L 1201 365.56909925336527 L 1202 365.46512306892225 L 1203 365.3615528271805 L 1204 365.2583896789192 L 1205 365.1556347703946 L 1206 365.05328924332684 L 1207 364.9513542348874 L 1208 364.8498308776864 L 1209 364.74872029976007 L 1210 364.6480236245583 L 1211 364.54774197093195 L 1212 364.44787645312067 L 1213 364.3484281807402 L 1214 364.2493982587704 L 1215 364.15078778754264 L 1216 364.05259786272785 L 1217 363.9548295753242 L 1218 363.85748401164494 L 1219 363.7605622533065 L 1220 363.6640653772163 L 1221 363.5679944555608 L 1222 363.4723505557937 L 1223 363.37713474062406 L 1224 363.28234806800447 L 1225 363.18799159111904 L 1226 363.09406635837223 L 1227 363.00057341337674 L 1228 362.9075137949421 L 1229 362.8148885370631 L 1230 362.7226986689083 L 1231 362.63094521480866 L 1232 362.53962919424606 L 1233 362.44875162184195 L 1234 362.35831350734634 L 1235 362.26831585562604 L 1236 362.1787596666542 L 1237 362.0896459354986 L 1238 362.0009756523109 L 1239 361.9127498023155 L 1240 361.8249693657988 L 1241 361.73763531809806 L 1242 361.6507486295907 L 1243 361.5643102656834 L 1244 361.47832118680157 L 1245 361.39278234837855 L 1246 361.30769470084505 L 1247 361.2230591896184 L 1248 361.13887675509244 L 1249 361.0551483326265 L 1250 360.9718748525357 L 1251 360.8890572400799 L 1252 360.80669641545416 L 1253 360.7247932937777 L 1254 360.64334878508447 L 1255 360.56236379431255 L 1256 360.4818392212944 L 1257 360.4017759607467 L 1258 360.3221749022603 L 1259 360.24303693029066 L 1260 360.1643629241478 L 1261 360.08615375798644 L 1262 360.0084103007965 L 1263 359.93113341639355 L 1264 359.85432396340866 L 1265 359.77798279527946 L 1266 359.7021107602404 L 1267 359.62670870131325 L 1268 359.55177745629794 L 1269 359.47731785776307 L 1270 359.4033307330368 L 1271 359.3298169041974 L 1272 359.2567771880646 L 1273 359.1842123961899 L 1274 359.1121233348481 L 1275 359.040510805028 L 1276 358.96937560242367 L 1277 358.8987185174255 L 1278 358.8285403351115 L 1279 358.75884183523846 L 1280 358.68962379223353 L 1281 358.62088697518533 L 1282 358.55263214783554 L 1283 358.4848600685705 L 1284 358.41757149041257 L 1285 358.35076716101185 L 1286 358.2844478226381 L 1287 358.21861421217216 L 1288 358.15326706109784 L 1289 358.08840709549395 L 1290 358.02403503602613 L 1291 357.9601515979389 L 1292 357.89675749104737 L 1293 357.8338534197301 L 1294 357.7714400829203 L 1295 357.7095181740991 L 1296 357.648088381287 L 1297 357.58715138703656 L 1298 357.52670786842486 L 1299 357.466758497046 L 1300 357.40730393900344 L 1301 357.34834485490273 L 1302 357.2898818998444 L 1303 357.23191572341597 L 1304 357.1744469696856 L 1305 357.11747627719444 L 1306 357.06100427894955 L 1307 357.005031602417 L 1308 356.9495588695148 L 1309 356.8945866966062 L 1310 356.84011569449245 L 1311 356.78614646840634 L 1312 356.7326796180055 L 1313 356.6797157373653 L 1314 356.627255414973 L 1315 356.5752992337203 L 1316 356.5238477708977 L 1317 356.47290159818755 L 1318 356.42246128165795 L 1319 356.3725273817563 L 1320 356.32310045330325 L 1321 356.27418104548633 L 1322 356.225769701854 L 1323 356.17786696030964 L 1324 356.13047335310534 L 1325 356.0835894068364 L 1326 356.037215642435 L 1327 355.9913525751647 L 1328 355.9460007146146 L 1329 355.9011605646939 L 1330 355.856832623626 L 1331 355.81301738394313 L 1332 355.7697153324808 L 1333 355.7269269503725 L 1334 355.6846527130442 L 1335 355.6428930902093 L 1336 355.60164854586316 L 1337 355.56091953827803 L 1338 355.52070651999804 L 1339 355.48100993783413 L 1340 355.44183023285893 L 1341 355.40316784040215 L 1342 355.3650231900456 L 1343 355.3273967056182 L 1344 355.29028880519166 L 1345 355.25369990107566 L 1346 355.2176303998132 L 1347 355.182080702176 L 1348 355.1470512031605 L 1349 355.11254229198295 L 1350 355.07855435207534 L 1351 355.04508776108105 L 1352 355.01214289085084 L 1353 354.97972010743837 L 1354 354.94781977109653 L 1355 354.9164422362732 L 1356 354.8855878516073 L 1357 354.85525695992493 L 1358 354.8254498982358 L 1359 354.7961669977291 L 1360 354.76740858377013 L 1361 354.7391749758965 L 1362 354.71146648781473 L 1363 354.6842834273966 L 1364 354.6576260966758 L 1365 354.63149479184466 L 1366 354.6058898032507 L 1367 354.58081141539355 L 1368 354.55625990692175 L 1369 354.5322355506295 L 1370 354.50873861345394 L 1371 354.4857693564718 L 1372 354.4633280348969 L 1373 354.441414898077 L 1374 354.4200301894912 L 1375 354.3991741467471 L 1376 354.37884700157827 L 1377 354.35904897984176 L 1378 354.33978030151536 L 1379 354.32104118069526 L 1380 354.3028318255937 L 1381 354.2851524385367 L 1382 354.2680032159618 L 1383 354.25138434841557 L 1384 354.235296020552 L 1385 354.2197384111302 L 1386 354.2047116930122 L 1387 354.1902160331615 L 1388 354.17625159264077 L 1389 354.1628185266103 L 1390 354.1499169843263 L 1391 354.13754710913906 L 1392 354.12570903849155 L 1393 354.1144029039177 L 1394 354.1036288310412 L 1395 354.0933869395738 L 1396 354.0836773433142 L 1397 354.0745001501467 L 1398 354.0658554620401 L 1399 354.05774337504624 L 1400 354.05016397929944 L 1401 354.0431173590151 L 1402 354.036603592489 L 1403 354.0306227520962 L 1404 354.02517490429034 L 1405 354.02026010960316 L 1406 354.01587842264337 L 1407 354.0120298920963 L 1408 354.0087145607234 L 1409 354.00593246536164 L 1410 354.00368363692314 L 1411 354.00196810039495 L 1412 354.00078587483847 L 1413 354.00013697338954 L 1414 354.0000214032582 L 1415 354.00043916572855 L 1416 354.00139025615886 L 1417 354.0028746639813 L 1418 354.0048923727026 L 1419 354.0074433599038 L 1420 354.0105275972405 L 1421 354.01414505044363 L 1422 354.01829567931907 L 1423 354.022979437749 L 1424 354.0281962736915 L 1425 354.03394612918186 L 1426 354.0402289403329 L 1427 354.0470446373356 L 1428 354.0543931444601 L 1429 354.0622743800564 L 1430 354.07068825655534 L 1431 354.0796346804694 L 1432 354.089113552394 L 1433 354.09912476700845 L 1434 354.1096682130771 L 1435 354.1207437734507 L 1436 354.1323513250676 L 1437 354.1444907389551 L 1438 354.1571618802309 L 1439 354.17036460810465 L 1440 354.18409877587965 L 1441 354.1983642309541 L 1442 354.213160814823 L 1443 354.2284883630802 L 1444 354.2443467054196 L 1445 354.2607356656377 L 1446 354.27765506163496 L 1447 354.2951047054184 L 1448 354.3130844031032 L 1449 354.3315939549151 L 1450 354.35063315519267 L 1451 354.3702017923894 L 1452 354.3902996490762 L 1453 354.4109265019438 L 1454 354.432082121805 L 1455 354.45376627359775 L 1456 354.4759787163872 L 1457 354.49871920336864 L 1458 354.52198748187027 L 1459 354.54578329335584 L 1460 354.5701063734277 L 1461 354.59495645182966 L 1462 354.62033325245005 L 1463 354.6462364933246 L 1464 354.67266588663983 L 1465 354.69962113873606 L 1466 354.72710195011086 L 1467 354.755108015422 L 1468 354.7836390234914 L 1469 354.8126946573081 L 1470 354.84227459403206 L 1471 354.8723785049975 L 1472 354.903006055717 L 1473 354.9341569058847 L 1474 354.96583070938027 L 1475 354.998027114273 L 1476 355.03074576282535 L 1477 355.0639862914971 L 1478 355.0977483309494 L 1479 355.1320315060488 L 1480 355.1668354358715 L 1481 355.2021597337076 L 1482 355.2380040070652 L 1483 355.27436785767486 L 1484 355.31125088149435 L 1485 355.3486526687126 L 1486 355.3865728037546 L 1487 355.4250108652858 L 1488 355.46396642621716 L 1489 355.5034390537095 L 1490 355.54342830917835 L 1491 355.5839337482992 L 1492 355.62495492101203 L 1493 355.6664913715263 L 1494 355.70854263832655 L 1495 355.7511082541767 L 1496 355.794187746126 L 1497 355.8377806355139 L 1498 355.88188643797537 L 1499 355.9265046634464 L 1500 355.97163481616934 L 1501 356.01727639469857 L 1502 356.06342889190597 L 1503 356.1100917949863 L 1504 356.15726458546357 L 1505 356.204946739196 L 1506 356.25313772638236 L 1507 356.30183701156784 L 1508 356.3510440536496 L 1509 356.40075830588347 L 1510 356.4509792158892 L 1511 356.5017062256573 L 1512 356.55293877155475 L 1513 356.6046762843317 L 1514 356.6569181891273 L 1515 356.7096639054765 L 1516 356.7629128473164 L 1517 356.8166644229925 L 1518 356.87091803526584 L 1519 356.9256730813189 L 1520 356.98092895276284 L 1521 357.0366850356442 L 1522 357.09294071045144 L 1523 357.14969535212214 L 1524 357.2069483300497 L 1525 357.26469900809053 L 1526 357.3229467445711 L 1527 357.3816908922948 L 1528 357.4409307985496 L 1529 357.5006658051148 L 1530 357.5608952482688 L 1531 357.62161845879626 L 1532 357.68283476199537 L 1533 357.7445434776856 L 1534 357.80674392021524 L 1535 357.86943539846885 L 1536 357.9326172158752 L 1537 357.99628867041463 L 1538 358.0604490546272 L 1539 358.1250976556205" stroke-linecap="round" stroke-linejoin="round" stroke-miterlimit="10" stroke-width="23"/>
    </g>
</svg>